<svg width="880" height="256" viewBox="0 0 880 256" fill="none" xmlns="http://www.w3.org/2000/svg">
<path d="M111.105 31.0659C100.871 20.871 84.2516 20.9801 74.0543 31.2111L8.0804 97.4161C-2.11818 107.648 -1.98842 123.976 8.24253 134.172L116.413 242.342C126.646 252.536 143.233 252.451 153.43 242.22L185.582 210.068C176.205 219.445 168.489 212.703 159.345 203.597L141.411 185.664C127.797 191.053 111.885 188.376 100.855 177.367L87.1891 163.701C86.7293 163.245 86.3745 162.769 86.1252 162.172C85.8759 161.574 85.7473 160.933 85.7467 160.286C85.7462 159.638 85.8737 158.997 86.122 158.4C86.3702 157.802 86.7593 157.295 87.2183 156.839L94.9518 149.105L78.1167 132.27C75.4814 129.64 75.0511 125.393 77.4077 122.524C80.1015 119.23 84.9857 119.055 87.9411 122.004L105.004 139.053L116.561 127.496L99.6857 110.663C97.0492 108.032 96.6201 103.786 98.9968 100.897C99.6272 100.13 100.411 99.5026 101.298 99.0561C102.186 98.6097 103.156 98.3537 104.148 98.3048C105.14 98.2558 106.131 98.4148 107.058 98.7717C107.985 99.1285 108.827 99.6753 109.53 100.377L126.662 117.395L133.922 110.134C134.378 109.675 134.827 109.261 135.425 109.012C136.022 108.763 136.663 108.634 137.311 108.634C137.958 108.633 138.599 108.76 139.197 109.008C139.795 109.256 140.338 109.62 140.795 110.079L154.483 123.74C165.375 134.611 168.223 150.433 163.131 163.945L181.068 181.882C190.212 190.987 197.863 197.787 207.241 188.41L247.812 147.838C238.06 157.59 230.048 150.077 220.411 140.448L111.105 31.0659Z" fill="url(#paint0_linear_8_156)"/>
<path d="M187.808 13.0273L153.32 47.4873L229.948 124.116C237.283 131.419 243.658 137.239 250.732 134.417C254.821 132.787 257.628 128.351 256.061 124.238C219.394 28.0253 219.379 28.0238 214.515 17.507C209.651 6.99014 195.971 4.76016 187.808 13.0273Z" fill="#897FFF"/>
<path d="M187.808 13.0273L153.32 47.4873L229.948 124.116C237.283 131.419 243.658 137.239 250.732 134.417C254.821 132.787 257.628 128.351 256.061 124.238C219.394 28.0253 219.379 28.0238 214.515 17.507C209.651 6.99014 195.971 4.76016 187.808 13.0273Z" fill="#897FFF"/>
<path d="M187.808 13.0273L153.32 47.4873L229.948 124.116C237.283 131.419 243.658 137.239 250.732 134.417C254.821 132.787 257.628 128.351 256.061 124.238C219.394 28.0253 219.379 28.0238 214.515 17.507C209.651 6.99014 195.971 4.76016 187.808 13.0273Z" fill="#897FFF"/>
<path d="M187.808 13.0273L153.32 47.4873L229.948 124.116C237.283 131.419 243.658 137.239 250.732 134.417C254.821 132.787 257.628 128.351 256.061 124.238C219.394 28.0253 219.379 28.0238 214.515 17.507C209.651 6.99014 195.971 4.76016 187.808 13.0273Z" fill="#897FFF"/>
<path d="M187.808 13.0273L153.32 47.4873L229.948 124.116C237.283 131.419 243.658 137.239 250.732 134.417C254.821 132.787 257.628 128.351 256.061 124.238C219.394 28.0253 219.379 28.0238 214.515 17.507C209.651 6.99014 195.971 4.76016 187.808 13.0273Z" fill="#897FFF"/>
<path d="M344 216C339.858 216 336.5 212.642 336.5 208.5V63.5C336.5 59.3579 339.858 56 344 56H367.811C371.808 56 375.103 59.1347 375.302 63.1268L377.153 100.278C377.26 102.421 374.7 103.6 373.14 102.127C372.518 101.539 372.257 100.662 372.473 99.8335C374.986 90.1858 378.832 82.1629 384.012 75.7647C389.43 69.0719 395.994 64.1569 403.704 61.0196C411.623 57.6732 420.271 56 429.648 56C440.484 56 450.07 58.0915 458.405 62.2745C466.949 66.4575 473.617 72.8366 478.41 81.4118C483.411 89.7778 485.912 100.34 485.912 113.098V208.5C485.912 212.642 482.554 216 478.412 216H450.589C446.447 216 443.089 212.642 443.089 208.5V125.333C443.089 111.948 440.484 102.745 435.274 97.7255C430.065 92.4967 423.292 89.8824 414.957 89.8824C409.122 89.8824 403.392 91.3464 397.765 94.2745C392.347 96.9935 387.867 101.49 384.324 107.765C380.99 114.039 379.323 122.405 379.323 132.863V208.5C379.323 212.642 375.965 216 371.823 216H344Z" fill="white"/>
<path d="M689.245 61.6324C690.097 58.3174 693.085 56 696.508 56H726.133C731.211 56 734.821 60.9396 733.279 65.7773L711.306 134.725L687.85 210.664C686.879 213.807 683.974 215.951 680.684 215.951H642.346C639.065 215.951 636.164 213.818 635.187 210.685L605.19 114.574C604.456 112.221 601.119 112.238 600.41 114.599L571.544 210.61C570.591 213.781 567.672 215.951 564.362 215.951H526.061C522.783 215.951 519.884 213.822 518.904 210.693L473.486 65.7425C471.972 60.9119 475.58 56 480.643 56H510.332C513.749 56 516.734 58.3101 517.592 61.6182L545.138 167.891C545.776 170.354 549.257 170.4 549.96 167.954L580.589 61.4275C581.513 58.2138 584.453 56 587.797 56H619.042C622.381 56 625.317 58.2068 626.246 61.4136L657.103 167.959C657.811 170.403 661.292 170.35 661.926 167.886L689.245 61.6324Z" fill="white"/>
<path d="M793.183 56C806.876 56 818.424 58.0513 827.825 62.1539C837.431 66.0513 845.095 71.4872 850.818 78.4615C855.144 83.4032 858.545 88.7822 861.021 94.5985C862.571 98.2426 860.484 102.278 856.759 103.621L832.17 112.491C827.915 114.025 823.349 111.436 821.742 107.208C819.73 101.917 817.057 97.6681 813.723 94.4615C808.818 89.7436 802.176 87.3846 793.796 87.3846C786.03 87.3846 779.388 89.2308 773.869 92.9231C768.351 96.4103 764.161 101.846 761.3 109.231C758.439 116.41 757.008 125.436 757.008 136.308C757.008 147.179 758.439 156.205 761.3 163.385C764.366 170.564 768.658 175.897 774.176 179.385C779.899 182.872 786.541 184.615 794.103 184.615C800.234 184.615 805.446 183.59 809.738 181.538C814.03 179.282 817.504 176.103 820.161 172C821.54 170.023 822.705 167.856 823.656 165.499C825.359 161.28 829.844 158.48 834.173 159.881L857.375 167.394C861.111 168.603 863.334 172.513 861.97 176.195C859.555 182.717 856.042 188.601 851.431 193.846C845.299 200.821 837.431 206.256 827.825 210.154C818.219 214.051 807.081 216 794.409 216C778.672 216 764.775 212.821 752.716 206.462C740.658 200.103 731.359 190.974 724.819 179.077C718.279 167.179 715.009 152.821 715.009 136C715.009 119.179 718.279 104.821 724.819 92.9231C731.359 81.0257 740.556 71.8974 752.41 65.5385C764.264 59.1795 777.855 56 793.183 56Z" fill="white"/>
<defs>
<linearGradient id="paint0_linear_8_156" x1="124.156" y1="10.4403" x2="124.156" y2="249.941" gradientUnits="userSpaceOnUse">
<stop stop-color="#FFCA4A"/>
<stop offset="1" stop-color="#F7931A"/>
</linearGradient>
</defs>
</svg>
