<svg width="256" height="242" viewBox="0 0 256 242" fill="none" xmlns="http://www.w3.org/2000/svg">
<path d="M110.605 23.0659C100.371 12.871 83.7516 12.9801 73.5543 23.2111L7.5804 89.4161C-2.61818 99.6483 -2.48842 115.976 7.74253 126.172L115.913 234.342C126.146 244.536 142.733 244.451 152.93 234.22L185.082 202.068C175.705 211.445 167.989 204.703 158.845 195.597L140.911 177.664C127.297 183.053 111.385 180.376 100.355 169.367L86.6891 155.701C86.2293 155.245 85.8745 154.769 85.6252 154.172C85.3759 153.574 85.2473 152.933 85.2467 152.286C85.2462 151.638 85.3737 150.997 85.622 150.4C85.8702 149.802 86.2593 149.295 86.7183 148.839L94.4518 141.105L77.6167 124.27C74.9814 121.64 74.5511 117.393 76.9077 114.524C79.6015 111.23 84.4857 111.055 87.4411 114.004L104.504 131.053L116.061 119.496L99.1857 102.663C96.5492 100.032 96.1201 95.7861 98.4968 92.897C99.1272 92.1296 99.9112 91.5026 100.798 91.0561C101.686 90.6097 102.656 90.3537 103.648 90.3048C104.64 90.2558 105.631 90.4148 106.558 90.7717C107.485 91.1285 108.327 91.6753 109.03 92.3769L126.162 109.395L133.422 102.134C133.878 101.675 134.327 101.261 134.925 101.012C135.522 100.763 136.163 100.634 136.811 100.634C137.458 100.633 138.099 100.76 138.697 101.008C139.295 101.256 139.838 101.62 140.295 102.079L153.983 115.74C164.875 126.611 167.723 142.433 162.631 155.945L180.568 173.882C189.712 182.987 197.363 189.787 206.741 180.41L247.312 139.838C237.56 149.59 229.548 142.077 219.911 132.448L110.605 23.0659Z" fill="url(#paint0_linear_4_520)"/>
<path d="M187.308 5.02728L152.82 39.4873L229.448 116.116C236.783 123.419 243.158 129.239 250.232 126.417C254.321 124.787 257.128 120.351 255.561 116.238C218.894 20.0253 218.879 20.0238 214.015 9.50696C209.151 -1.00986 195.471 -3.23984 187.308 5.02728Z" fill="#897FFF"/>
<path d="M187.308 5.02728L152.82 39.4873L229.448 116.116C236.783 123.419 243.158 129.239 250.232 126.417C254.321 124.787 257.128 120.351 255.561 116.238C218.894 20.0253 218.879 20.0238 214.015 9.50696C209.151 -1.00986 195.471 -3.23984 187.308 5.02728Z" fill="#897FFF"/>
<path d="M187.308 5.02728L152.82 39.4873L229.448 116.116C236.783 123.419 243.158 129.239 250.232 126.417C254.321 124.787 257.128 120.351 255.561 116.238C218.894 20.0253 218.879 20.0238 214.015 9.50696C209.151 -1.00986 195.471 -3.23984 187.308 5.02728Z" fill="#897FFF"/>
<path d="M187.308 5.02728L152.82 39.4873L229.448 116.116C236.783 123.419 243.158 129.239 250.232 126.417C254.321 124.787 257.128 120.351 255.561 116.238C218.894 20.0253 218.879 20.0238 214.015 9.50696C209.151 -1.00986 195.471 -3.23984 187.308 5.02728Z" fill="#897FFF"/>
<path d="M187.308 5.02728L152.82 39.4873L229.448 116.116C236.783 123.419 243.158 129.239 250.232 126.417C254.321 124.787 257.128 120.351 255.561 116.238C218.894 20.0253 218.879 20.0238 214.015 9.50696C209.151 -1.00986 195.471 -3.23984 187.308 5.02728Z" fill="#897FFF"/>
<defs>
<linearGradient id="paint0_linear_4_520" x1="123.656" y1="2.44031" x2="123.656" y2="241.941" gradientUnits="userSpaceOnUse">
<stop stop-color="#FFCA4A"/>
<stop offset="1" stop-color="#F7931A"/>
</linearGradient>
</defs>
</svg>
